<svg width="26" height="25" viewBox="0 0 26 25" fill="none" xmlns="http://www.w3.org/2000/svg">
<path d="M21.1599 0H5.0293C2.71886 0 0.846191 1.86063 0.846191 4.15622V20.1831C0.846191 22.4787 2.71886 24.3393 5.0293 24.3393H21.1599C23.4703 24.3393 25.343 22.4787 25.343 20.1831V4.15622C25.343 1.86063 23.4703 0 21.1599 0ZM13.0946 19.5699C8.98802 19.5699 5.64651 16.2498 5.64651 12.1697C5.64651 8.08902 8.98802 4.76946 13.0946 4.76946C17.2016 4.76946 20.5427 8.08902 20.5427 12.1697C20.5427 16.2498 17.2016 19.5699 13.0946 19.5699ZM20.6149 6.42663C19.5235 6.42663 18.6355 5.5448 18.6355 4.45999C18.6355 3.37518 19.5231 2.49335 20.6149 2.49335C21.7067 2.49335 22.5943 3.37565 22.5943 4.45999C22.5943 5.54433 21.7062 6.42663 20.6149 6.42663Z" fill="white"/>
</svg>
