<svg width="34" height="34" viewBox="0 0 34 34" fill="none" xmlns="http://www.w3.org/2000/svg">
<path d="M16.7968 0.983712C25.7989 0.858682 33.2439 8.39454 33.2439 17.3967C33.2439 26.3874 25.7989 33.8437 16.7968 33.821C7.80606 33.8096 0.361124 26.376 0.383856 17.3512C0.395223 8.38318 7.81742 0.881415 16.7968 0.983712ZM16.8082 31.1272C24.4009 31.1272 30.5273 25.0007 30.5273 17.408C30.5273 9.80396 24.4122 3.67753 16.8195 3.67753C9.19274 3.66616 3.0663 9.80396 3.0663 17.4194C3.08903 25.0007 9.21547 31.1272 16.8082 31.1272Z" fill="#2E2E2E"/>
<path d="M16.7288 19.9543C19.5249 20.0111 21.5936 21.3751 23.1849 23.5801C23.6282 24.2053 23.4804 24.9782 22.9235 25.4101C22.3097 25.8761 21.5822 25.8193 21.0708 25.1601C20.3888 24.3076 19.65 23.5347 18.6384 23.08C16.5924 22.148 14.4101 22.739 12.8188 24.6599C12.6711 24.8304 12.546 25.0237 12.3983 25.1942C11.864 25.7852 11.1707 25.8761 10.5796 25.4329C10.0227 25.0237 9.86358 24.2394 10.2728 23.6029C11.0684 22.3867 12.1368 21.466 13.3985 20.784C14.4442 20.2385 15.5467 19.9429 16.7288 19.9543Z" fill="#2E2E2E"/>
<path d="M19.2863 14.4529C19.2976 13.6232 19.8773 12.8389 20.6957 12.191C21.6959 11.4068 22.8553 11.0317 24.0942 10.8953C24.833 10.8157 25.4809 11.3613 25.5718 12.0887C25.6514 12.748 25.1399 13.43 24.4125 13.5436C23.8669 13.6346 23.344 13.771 22.8326 13.9869C22.537 14.1119 22.4006 14.2256 22.6507 14.5552C23.2645 15.3963 23.1167 16.3852 22.3324 16.9535C21.5709 17.4991 20.457 17.3059 19.8432 16.533C19.5022 16.0897 19.2863 15.3736 19.2863 14.4529Z" fill="#2E2E2E"/>
<path d="M14.3305 14.6915C14.3419 15.8054 13.7508 16.8057 12.8984 17.1353C12.1595 17.4194 11.398 17.2148 10.9206 16.6011C10.466 16.01 10.4319 15.2371 10.9206 14.612C11.2048 14.2482 11.1025 14.1118 10.7388 13.9641C10.2841 13.7822 9.81808 13.6345 9.32933 13.5663C8.51095 13.4412 7.94264 12.7706 8.05631 12.0545C8.18134 11.2475 8.90878 10.7815 9.78398 10.9293C11.2389 11.168 12.546 11.6908 13.569 12.8047C14.035 13.3048 14.3305 14.0095 14.3305 14.6915Z" fill="#2E2E2E"/>
</svg>
