<svg width="34" height="34" viewBox="0 0 34 34" fill="none" xmlns="http://www.w3.org/2000/svg">
<path d="M16.9795 33.8196C7.97741 33.9333 0.509734 26.3861 0.543833 17.3385C0.577932 8.37048 8.02287 0.93692 17.0591 0.982385C26.0044 1.02785 33.4607 8.46141 33.4038 17.5204C33.3584 26.4429 25.9589 33.9333 16.9795 33.8196ZM17.0022 3.68757C9.39819 3.6762 3.26039 9.79127 3.24902 17.3726C3.23765 24.988 9.34136 31.1258 16.9227 31.1372C24.5608 31.1486 30.6986 25.0335 30.6986 17.4181C30.71 9.82537 24.5949 3.68757 17.0022 3.68757Z" fill="#2E2E2E"/>
<path d="M16.9341 19.9756C19.7075 20.0438 21.7648 21.3964 23.3447 23.5901C23.8107 24.238 23.663 25.0222 23.0719 25.4541C22.4468 25.9088 21.742 25.8292 21.2192 25.17C20.5713 24.3402 19.8439 23.6014 18.8891 23.1468C16.8091 22.1579 14.5813 22.7603 12.9786 24.7153C12.8422 24.8745 12.7286 25.045 12.5922 25.2041C12.058 25.8065 11.376 25.9088 10.7736 25.4769C10.1825 25.0677 10.0348 24.2607 10.4667 23.6014C11.2737 22.3966 12.3307 21.4759 13.6038 20.794C14.6381 20.2484 15.752 19.9529 16.9341 19.9756Z" fill="#2E2E2E"/>
<path d="M11.3531 11.5759C12.2738 11.5759 13.0353 12.3147 13.024 13.2127C13.0126 14.0879 12.2624 14.8267 11.3758 14.8381C10.4665 14.8494 9.68226 14.0992 9.68226 13.2013C9.6709 12.3034 10.4211 11.5759 11.3531 11.5759Z" fill="#2E2E2E"/>
<path d="M20.9122 13.1782C20.9236 12.2007 21.5715 11.5642 22.5717 11.5756C23.5151 11.587 24.1743 12.2462 24.1743 13.1896C24.1743 14.133 23.481 14.8377 22.5376 14.8377C21.5828 14.8377 20.9122 14.1444 20.9122 13.1782Z" fill="#2E2E2E"/>
</svg>
