<svg width="34" height="34" viewBox="0 0 34 34" fill="none" xmlns="http://www.w3.org/2000/svg">
<path d="M33.0083 17.418C33.1106 26.4087 25.5861 33.8536 16.5726 33.8423C7.59324 33.8309 0.148315 26.386 0.159681 17.3725C0.182414 8.40449 7.61598 0.948195 16.6522 0.982294C25.6088 0.993661 33.122 8.41586 33.0083 17.418ZM30.3258 17.4293C30.3258 9.82528 24.2221 3.68747 16.6294 3.68747C9.02539 3.67611 2.87623 9.79118 2.86486 17.3611C2.85349 24.9993 8.96857 31.1371 16.584 31.1371C24.1881 31.1371 30.3145 25.0107 30.3258 17.4293Z" fill="#2E2E2E"/>
<path d="M16.5954 20.9984C18.2435 20.9984 19.8916 20.9984 21.5283 20.9984C22.4945 20.9984 23.0059 21.4644 23.0059 22.3283C23.0059 23.1694 22.4604 23.6809 21.5283 23.6809C18.2321 23.6922 14.9472 23.6922 11.651 23.6809C10.719 23.6809 10.1848 23.158 10.1734 22.3283C10.1734 21.4644 10.6735 21.0098 11.651 21.0098C13.3105 20.9984 14.9472 20.9984 16.5954 20.9984Z" fill="#2E2E2E"/>
<path d="M21.6533 16.1904C20.994 16.1904 20.3234 16.2017 19.6642 16.1904C18.8003 16.179 18.1979 15.622 18.1866 14.8605C18.1752 14.099 18.7776 13.5193 19.6301 13.5079C20.9599 13.4965 22.2784 13.4965 23.6083 13.5079C24.5062 13.5193 25.0405 14.0194 25.0518 14.8378C25.0518 15.6789 24.5176 16.179 23.5856 16.2017C23.2673 16.2131 22.9377 16.2017 22.6194 16.2017C22.3012 16.1904 21.9715 16.1904 21.6533 16.1904Z" fill="#2E2E2E"/>
<path d="M11.5033 16.1905C10.8441 16.1905 10.1848 16.2018 9.52558 16.1905C8.6731 16.1677 8.15026 15.6562 8.13889 14.872C8.12753 14.0536 8.65038 13.5194 9.53695 13.508C10.8554 13.4853 12.1853 13.4853 13.5038 13.508C14.3335 13.5194 14.9132 14.0763 14.9246 14.8265C14.9359 15.5994 14.3449 16.1677 13.4924 16.1905C12.8332 16.2018 12.1739 16.1905 11.5033 16.1905Z" fill="#2E2E2E"/>
</svg>
