<svg width="34" height="34" viewBox="0 0 34 34" fill="none" xmlns="http://www.w3.org/2000/svg">
<path d="M33.7423 17.4293C33.8446 26.42 26.3201 33.8649 17.3066 33.8536C8.32725 33.8422 0.882322 26.3973 0.905055 17.3838C0.916421 8.39306 8.36135 0.959497 17.3862 0.98223C26.3428 1.00496 33.856 8.42716 33.7423 17.4293ZM17.318 31.1484C24.9221 31.1484 31.0485 25.0333 31.0599 17.452C31.0712 9.84794 24.9675 3.71014 17.3748 3.69878C9.73667 3.68741 3.61023 9.80248 3.59887 17.4293C3.59887 25.0106 9.72531 31.137 17.318 31.1484Z" fill="#2E2E2E"/>
<path d="M17.2498 25.7609C14.465 25.6245 12.3623 24.2946 10.7937 22.0669C10.3504 21.4417 10.5437 20.6233 11.1574 20.2141C11.7371 19.8163 12.4873 19.9527 12.976 20.5438C13.2716 20.8961 13.533 21.2598 13.8626 21.5781C16.0336 23.6468 19.0116 23.499 20.9893 21.2371C21.2053 20.9984 21.3871 20.7256 21.5917 20.4869C22.0691 19.9414 22.8193 19.8391 23.3876 20.2369C23.9786 20.6461 24.1719 21.4417 23.7399 22.0441C22.1714 24.2946 20.0573 25.6359 17.2498 25.7609Z" fill="#2E2E2E"/>
<path d="M11.6917 14.8376C10.7824 14.8376 10.0095 14.0647 10.0322 13.1667C10.0436 12.2688 10.8051 11.5641 11.7372 11.5755C12.6351 11.5868 13.3626 12.3143 13.3739 13.1895C13.3739 14.0874 12.601 14.8489 11.6917 14.8376Z" fill="#2E2E2E"/>
<path d="M22.8534 11.5755C23.8423 11.5641 24.5243 12.2233 24.5243 13.1667C24.5356 14.1215 23.8423 14.8262 22.8989 14.8262C21.9441 14.8262 21.2621 14.1442 21.2621 13.1781C21.2735 12.2347 21.8986 11.5868 22.8534 11.5755Z" fill="#2E2E2E"/>
</svg>
