<svg width="33" height="34" viewBox="0 0 33 34" fill="none" xmlns="http://www.w3.org/2000/svg">
<path d="M16.5415 33.8035C8.83515 33.9058 1.93581 28.234 0.480919 20.6755C0.287692 19.6525 0.151296 18.6182 0.162663 17.5725C0.174029 16.629 0.605949 16.1062 1.42432 16.0948C2.29953 16.0721 2.83374 16.6063 2.83374 17.5725C2.84511 19.2774 3.14063 20.9369 3.82261 22.4941C5.93675 27.3588 9.59669 30.2913 14.882 30.9961C22.2133 31.9736 28.9194 26.9156 30.147 19.607C30.272 18.8796 30.3061 18.1408 30.3175 17.402C30.3288 16.7654 30.738 16.2653 31.2722 16.1289C31.9087 15.9698 32.4884 16.1858 32.8067 16.6972C32.9431 16.9132 32.9885 17.1519 32.9885 17.402C32.9317 23.0055 30.6244 27.4839 26.1119 30.746C23.043 32.9852 20.1219 33.8149 16.5415 33.8035Z" fill="#2E2E2E"/>
<path d="M8.97145 5.41064C10.0285 5.45611 10.8242 5.8653 11.1879 6.76323C11.5743 7.69527 12.1199 8.18402 13.177 8.24085C14.1772 8.29769 14.8933 8.92283 15.2116 9.90033C15.5525 10.9233 15.257 11.7985 14.4955 12.5373C14.4727 12.56 14.45 12.5941 14.4159 12.6169C13.6657 13.0943 13.5634 13.7649 13.7794 14.5833C14.0636 15.6744 13.7112 16.5837 12.8019 17.2202C11.904 17.8567 10.9151 17.8226 10.0285 17.243C9.31244 16.7656 8.71002 16.7997 8.00531 17.243C7.07328 17.834 6.09577 17.8454 5.18647 17.1861C4.31127 16.5383 3.95891 15.6403 4.25443 14.5833C4.49313 13.7308 4.2658 13.1284 3.58382 12.5601C2.78818 11.8894 2.45856 10.9915 2.79955 9.95717C3.1519 8.88873 3.93618 8.26359 5.02734 8.21812C5.94801 8.17266 6.40266 7.76347 6.73229 6.96783C7.15284 5.95623 7.95985 5.45611 8.97145 5.41064ZM11.0742 14.6287C11.0401 14.4241 11.0288 14.2536 10.9947 14.0945C10.7446 12.9692 11.0742 12.0486 11.9267 11.287C12.0517 11.1847 12.279 11.0824 12.2108 10.9006C12.1426 10.7073 11.8926 10.7414 11.7107 10.7301C10.6196 10.6164 9.82392 10.0936 9.38064 9.07059C9.28971 8.866 9.17604 8.67277 9.05101 8.42272C8.64183 9.08196 8.4145 9.77531 7.80072 10.23C7.20967 10.6619 6.47086 10.6619 5.67522 10.9006C6.89142 11.7985 7.38017 12.8556 7.06191 14.2082C7.02781 14.3446 6.90278 14.5264 7.03918 14.6401C7.19831 14.7765 7.35743 14.5946 7.49383 14.5151C8.5168 13.9126 9.5284 13.8899 10.5627 14.4923C10.6764 14.5605 10.8128 14.6742 11.0742 14.6287Z" fill="#2E2E2E"/>
<path d="M24.191 5.42212C25.089 5.44485 25.7937 5.88814 26.2824 6.68378C26.3279 6.76334 26.3847 6.84291 26.4074 6.93384C26.6575 7.82041 27.2486 8.13867 28.1465 8.20686C29.2149 8.27506 29.9765 8.87748 30.3288 9.92318C30.6698 10.9575 30.3288 11.81 29.5786 12.5488C29.4422 12.6852 29.3172 12.8329 29.1695 12.9466C28.7944 13.2308 28.7034 13.5831 28.8057 14.0491C28.908 14.5265 29.0444 15.0039 28.9649 15.504C28.6921 17.209 26.9303 18.1978 25.4186 17.3567C24.4865 16.8339 23.7705 16.7771 22.8384 17.3567C21.9973 17.891 21.0426 17.7546 20.2355 17.1294C19.4285 16.5043 19.133 15.6632 19.3376 14.6629C19.3831 14.4356 19.3944 14.2083 19.4513 13.9923C19.5649 13.5831 19.4626 13.2535 19.133 12.9807C18.9171 12.7989 18.7238 12.5943 18.5306 12.3897C17.86 11.685 17.6327 10.8779 17.9168 9.93454C18.201 9.02524 18.8148 8.35463 19.7468 8.28643C20.9175 8.1955 21.5881 7.69538 22.0428 6.61558C22.3838 5.78584 23.2135 5.43349 24.191 5.42212ZM27.3736 10.8552C25.7368 10.787 24.6684 9.98001 24.191 8.47966C24.0092 8.52512 23.9864 8.62742 23.9523 8.70698C23.4749 9.92318 22.6338 10.662 21.2812 10.7529C21.1562 10.7643 20.9857 10.7643 20.9403 10.9007C20.8948 11.0484 21.0539 11.128 21.1448 11.2076C22.1337 12.0373 22.4292 13.083 22.111 14.3219C22.0883 14.4242 22.0314 14.5379 22.1451 14.6402C22.1792 14.6402 22.2246 14.6516 22.2474 14.6402C23.4522 13.9241 24.6457 13.7877 25.8732 14.6061C26.1347 14.788 26.1688 14.6175 26.1347 14.356C26.0778 13.9127 25.9642 13.4695 26.0096 13.0148C26.1347 12.1055 26.7484 11.5486 27.3736 10.8552Z" fill="#2E2E2E"/>
<path d="M16.5869 19.6299C17.8144 19.6299 19.0534 19.6185 20.2809 19.6299C21.4971 19.6412 22.4519 20.13 23.0202 21.2325C23.5544 22.2782 23.4521 23.3239 22.7929 24.29C21.5994 26.0632 19.9399 27.0521 17.8258 27.3248C15.8822 27.5749 14.0522 27.3248 12.37 26.2905C11.4834 25.7449 10.7787 25.0061 10.2445 24.1195C9.03965 22.1191 10.3809 19.6753 12.7223 19.6299C14.0067 19.6071 15.3025 19.6299 16.5869 19.6299ZM16.5755 22.3237C15.4616 22.3237 14.3363 22.3237 13.2224 22.3237C12.9951 22.3237 12.6882 22.21 12.5632 22.5055C12.4609 22.7783 12.6996 22.9602 12.8474 23.142C13.6089 24.1082 14.6432 24.5742 15.8367 24.6879C17.5757 24.8584 19.167 24.5515 20.3378 23.0966C20.4741 22.9261 20.6901 22.7442 20.5878 22.5055C20.4741 22.2327 20.2014 22.3237 19.9854 22.3237C18.8488 22.3237 17.7121 22.3237 16.5755 22.3237Z" fill="#2E2E2E"/>
<path d="M16.6437 1.00047C17.985 0.90954 19.3603 1.17096 20.7242 1.48922C21.0425 1.55742 21.3494 1.64835 21.6222 1.81884C22.1109 2.1371 22.361 2.71678 22.2246 3.23963C22.0541 3.86478 21.5881 4.23987 20.9516 4.25123C20.7015 4.2626 20.4628 4.21713 20.2241 4.14894C17.7917 3.48969 15.3707 3.48969 12.9383 4.13757C12.7565 4.18303 12.5746 4.2285 12.3814 4.23987C11.6198 4.28533 11.0743 3.89888 10.9151 3.19417C10.7674 2.58039 11.1425 1.94387 11.8244 1.67108C12.4496 1.43239 13.1088 1.34146 13.7567 1.20506C14.6774 1.0232 15.6208 0.966371 16.6437 1.00047Z" fill="#2E2E2E"/>
</svg>
